<?xml version="1.0" encoding="UTF-8" standalone="no"?>
<svg width="74px" height="33px" viewBox="0 0 74 33" version="1.1" xmlns="http://www.w3.org/2000/svg" xmlns:xlink="http://www.w3.org/1999/xlink" xmlns:sketch="http://www.bohemiancoding.com/sketch/ns">
    <title>Untitled 2</title>
    <description>Created with Sketch (http://www.bohemiancoding.com/sketch)</description>
    <defs></defs>
    <g id="Page-1" stroke="none" stroke-width="1" fill="none" fill-rule="evenodd" sketch:type="MSPage">
        <g id="toolbox_sprite" sketch:type="MSLayerGroup" transform="translate(0.000000, 1.000000)">
            <g id="Page-1" sketch:type="MSShapeGroup">
                <path d="M28.5348863,15.6407791 L31.3966374,18.4403182 C31.811386,18.827417 31.9496335,19.3112831 31.8113839,19.8919312 C31.6454845,20.4587543 31.2860411,20.8112853 30.7330429,20.9495348 L26.8344254,21.9449265 L27.9335038,25.8020694 C28.0994032,26.3688925 27.9680681,26.8527586 27.5394945,27.2536823 C27.1385709,27.6822559 26.6547048,27.813591 26.0878816,27.6476915 L22.2307388,26.5486132 L21.2353471,30.4472307 C21.0970975,31.0002288 20.7445665,31.3596723 20.1777434,31.5255717 C20.0118439,31.5532216 19.8805089,31.5670464 19.7837342,31.5670464 C19.3551606,31.5670464 19.0026296,31.4149741 18.7261305,31.1108252 L15.9265913,28.249074 L13.1270521,31.1108252 C12.7399534,31.5255738 12.2560873,31.6638212 11.6754392,31.5255717 C11.1086161,31.3734972 10.7560851,31.0140538 10.6178356,30.4472307 L9.62244385,26.5486132 L5.765301,27.6476915 C5.19847789,27.813591 4.71461176,27.6822559 4.31368809,27.2536823 C3.88511452,26.8527586 3.75377943,26.3688925 3.91967888,25.8020694 L5.01875722,21.9449265 L1.12013971,20.9495348 C0.56714155,20.8112853 0.20769814,20.4587543 0.0417986933,19.8919312 C-0.0964508458,19.3112831 0.0417966196,18.827417 0.456545237,18.4403182 L3.31829639,15.6407791 L0.456545237,12.8412399 C0.0417966196,12.4541412 -0.0964508458,11.9702751 0.0417986933,11.389627 C0.20769814,10.8228039 0.56714155,10.4702729 1.12013971,10.3320233 L5.01875722,9.33663161 L3.91967888,5.47948876 C3.75377943,4.91266565 3.88511452,4.42879952 4.31368809,4.02787585 C4.71461176,3.59930228 5.19847789,3.46796719 5.765301,3.63386664 L9.62244385,4.73294498 L10.6178356,0.834327466 C10.7560851,0.267504355 11.1086161,-0.0850266814 11.6754392,-0.223276221 C12.2422624,-0.389175668 12.7261285,-0.257840575 13.1270521,0.170732996 L15.9265913,3.05322148 L18.7261305,0.170732996 C19.1270542,-0.244015622 19.6109203,-0.375350714 20.1777434,-0.223276221 C20.7445665,-0.0850266814 21.0970975,0.267504355 21.2353471,0.834327466 L22.2307388,4.73294498 L26.0878816,3.63386664 C26.6547048,3.46796719 27.1385709,3.59930228 27.5394945,4.02787585 C27.9680681,4.42879952 28.0994032,4.91266565 27.9335038,5.47948876 L26.8344254,9.33663161 L30.7330429,10.3320233 C31.2860411,10.4702729 31.6454845,10.8228039 31.8113839,11.389627 C31.9496335,11.9702751 31.811386,12.4541412 31.3966374,12.8412399 L28.5348863,15.6407791 L28.5348863,15.6407791 Z" id="" fill="#EC0A0A"></path>
                <path d="M70.5348863,15.6407791 L73.3966374,18.4403182 C73.811386,18.827417 73.9496335,19.3112831 73.8113839,19.8919312 C73.6454845,20.4587543 73.2860411,20.8112853 72.7330429,20.9495348 L68.8344254,21.9449265 L69.9335038,25.8020694 C70.0994032,26.3688925 69.9680681,26.8527586 69.5394945,27.2536823 C69.1385709,27.6822559 68.6547048,27.813591 68.0878816,27.6476915 L64.2307388,26.5486132 L63.2353471,30.4472307 C63.0970975,31.0002288 62.7445665,31.3596723 62.1777434,31.5255717 C62.0118439,31.5532216 61.8805089,31.5670464 61.7837342,31.5670464 C61.3551606,31.5670464 61.0026296,31.4149741 60.7261305,31.1108252 L57.9265913,28.249074 L55.1270521,31.1108252 C54.7399534,31.5255738 54.2560873,31.6638212 53.6754392,31.5255717 C53.1086161,31.3734972 52.7560851,31.0140538 52.6178356,30.4472307 L51.6224439,26.5486132 L47.765301,27.6476915 C47.1984779,27.813591 46.7146118,27.6822559 46.3136881,27.2536823 C45.8851145,26.8527586 45.7537794,26.3688925 45.9196789,25.8020694 L47.0187572,21.9449265 L43.1201397,20.9495348 C42.5671416,20.8112853 42.2076981,20.4587543 42.0417987,19.8919312 C41.9035492,19.3112831 42.0417966,18.827417 42.4565452,18.4403182 L45.3182964,15.6407791 L42.4565452,12.8412399 C42.0417966,12.4541412 41.9035492,11.9702751 42.0417987,11.389627 C42.2076981,10.8228039 42.5671416,10.4702729 43.1201397,10.3320233 L47.0187572,9.33663161 L45.9196789,5.47948876 C45.7537794,4.91266565 45.8851145,4.42879952 46.3136881,4.02787585 C46.7146118,3.59930228 47.1984779,3.46796719 47.765301,3.63386664 L51.6224439,4.73294498 L52.6178356,0.834327466 C52.7560851,0.267504355 53.1086161,-0.0850266814 53.6754392,-0.223276221 C54.2422624,-0.389175668 54.7261285,-0.257840575 55.1270521,0.170732996 L57.9265913,3.05322148 L60.7261305,0.170732996 C61.1270542,-0.244015622 61.6109203,-0.375350714 62.1777434,-0.223276221 C62.7445665,-0.0850266814 63.0970975,0.267504355 63.2353471,0.834327466 L64.2307388,4.73294498 L68.0878816,3.63386664 C68.6547048,3.46796719 69.1385709,3.59930228 69.5394945,4.02787585 C69.9680681,4.42879952 70.0994032,4.91266565 69.9335038,5.47948876 L68.8344254,9.33663161 L72.7330429,10.3320233 C73.2860411,10.4702729 73.6454845,10.8228039 73.8113839,11.389627 C73.9496335,11.9702751 73.811386,12.4541412 73.3966374,12.8412399 L70.5348863,15.6407791 L70.5348863,15.6407791 Z" id="" fill="#F0B3B3"></path>
            </g>
        </g>
    </g>
</svg>